<mxfile host="app.diagrams.net" modified="2022-02-27T11:28:03.861Z" agent="5.0 (Windows NT 10.0; Win64; x64) AppleWebKit/537.36 (KHTML, like Gecko) Chrome/98.0.4758.102 Safari/537.36" etag="qcy2HlnkPIBPTdCsl1ug" version="16.6.1" type="github">
  <diagram id="C5RBs43oDa-KdzZeNtuy" name="Page-1">
    <mxGraphModel dx="1027" dy="792" grid="1" gridSize="10" guides="1" tooltips="1" connect="1" arrows="1" fold="1" page="1" pageScale="1" pageWidth="827" pageHeight="1169" math="0" shadow="0">
      <root>
        <mxCell id="WIyWlLk6GJQsqaUBKTNV-0" />
        <mxCell id="WIyWlLk6GJQsqaUBKTNV-1" parent="WIyWlLk6GJQsqaUBKTNV-0" />
        <mxCell id="LaqEhR6ei1MSvkasvMU0-19" value="" style="rounded=0;html=1;jettySize=auto;orthogonalLoop=1;fontSize=11;endArrow=block;endFill=0;endSize=8;strokeWidth=1;shadow=0;labelBackgroundColor=none;edgeStyle=orthogonalEdgeStyle;" edge="1" parent="WIyWlLk6GJQsqaUBKTNV-1" source="LaqEhR6ei1MSvkasvMU0-20" target="LaqEhR6ei1MSvkasvMU0-25">
          <mxGeometry relative="1" as="geometry">
            <mxPoint x="230" y="180" as="targetPoint" />
          </mxGeometry>
        </mxCell>
        <mxCell id="LaqEhR6ei1MSvkasvMU0-20" value="Inicio" style="rounded=1;whiteSpace=wrap;html=1;fontSize=12;glass=0;strokeWidth=1;shadow=0;" vertex="1" parent="WIyWlLk6GJQsqaUBKTNV-1">
          <mxGeometry x="170" y="90" width="120" height="40" as="geometry" />
        </mxCell>
        <mxCell id="LaqEhR6ei1MSvkasvMU0-21" value="Fin" style="rounded=1;whiteSpace=wrap;html=1;fontSize=12;glass=0;strokeWidth=1;shadow=0;" vertex="1" parent="WIyWlLk6GJQsqaUBKTNV-1">
          <mxGeometry x="170" y="770" width="120" height="40" as="geometry" />
        </mxCell>
        <mxCell id="LaqEhR6ei1MSvkasvMU0-25" value="&#xa;&#xa;&lt;span style=&quot;color: rgb(0, 0, 0); font-family: helvetica; font-size: 12px; font-style: normal; font-weight: 400; letter-spacing: normal; text-align: center; text-indent: 0px; text-transform: none; word-spacing: 0px; background-color: rgb(248, 249, 250); display: inline; float: none;&quot;&gt;Escribir: &quot;Introduzca valor (-1 para terminar)&quot;&lt;/span&gt;&#xa;&#xa;" style="shape=parallelogram;perimeter=parallelogramPerimeter;whiteSpace=wrap;html=1;fixedSize=1;" vertex="1" parent="WIyWlLk6GJQsqaUBKTNV-1">
          <mxGeometry x="165" y="180" width="130" height="60" as="geometry" />
        </mxCell>
        <mxCell id="LaqEhR6ei1MSvkasvMU0-27" value="Añadir el valor a listaNotas" style="rounded=0;whiteSpace=wrap;html=1;" vertex="1" parent="WIyWlLk6GJQsqaUBKTNV-1">
          <mxGeometry x="170" y="290" width="120" height="60" as="geometry" />
        </mxCell>
        <mxCell id="LaqEhR6ei1MSvkasvMU0-28" value="" style="rounded=0;html=1;jettySize=auto;orthogonalLoop=1;fontSize=11;endArrow=block;endFill=0;endSize=8;strokeWidth=1;shadow=0;labelBackgroundColor=none;edgeStyle=orthogonalEdgeStyle;exitX=0.5;exitY=1;exitDx=0;exitDy=0;entryX=0.5;entryY=0;entryDx=0;entryDy=0;" edge="1" parent="WIyWlLk6GJQsqaUBKTNV-1" source="LaqEhR6ei1MSvkasvMU0-25" target="LaqEhR6ei1MSvkasvMU0-27">
          <mxGeometry relative="1" as="geometry">
            <mxPoint x="370" y="489.9999999999999" as="sourcePoint" />
            <mxPoint x="260" y="521" as="targetPoint" />
          </mxGeometry>
        </mxCell>
        <mxCell id="LaqEhR6ei1MSvkasvMU0-29" value="¿valor diferente a -1?" style="rhombus;whiteSpace=wrap;html=1;" vertex="1" parent="WIyWlLk6GJQsqaUBKTNV-1">
          <mxGeometry x="183.75" y="400" width="92.5" height="95" as="geometry" />
        </mxCell>
        <mxCell id="LaqEhR6ei1MSvkasvMU0-30" value="" style="rounded=0;html=1;jettySize=auto;orthogonalLoop=1;fontSize=11;endArrow=block;endFill=0;endSize=8;strokeWidth=1;shadow=0;labelBackgroundColor=none;edgeStyle=orthogonalEdgeStyle;exitX=0.5;exitY=1;exitDx=0;exitDy=0;entryX=0.5;entryY=0;entryDx=0;entryDy=0;" edge="1" parent="WIyWlLk6GJQsqaUBKTNV-1" source="LaqEhR6ei1MSvkasvMU0-27" target="LaqEhR6ei1MSvkasvMU0-29">
          <mxGeometry relative="1" as="geometry">
            <mxPoint x="340" y="594.9999999999999" as="sourcePoint" />
            <mxPoint x="230" y="610" as="targetPoint" />
          </mxGeometry>
        </mxCell>
        <mxCell id="LaqEhR6ei1MSvkasvMU0-31" value="" style="rounded=0;html=1;jettySize=auto;orthogonalLoop=1;fontSize=11;endArrow=block;endFill=0;endSize=8;strokeWidth=1;shadow=0;labelBackgroundColor=none;edgeStyle=orthogonalEdgeStyle;exitX=1;exitY=0.5;exitDx=0;exitDy=0;entryX=1;entryY=0.5;entryDx=0;entryDy=0;" edge="1" parent="WIyWlLk6GJQsqaUBKTNV-1" source="LaqEhR6ei1MSvkasvMU0-29" target="LaqEhR6ei1MSvkasvMU0-25">
          <mxGeometry relative="1" as="geometry">
            <mxPoint x="265" y="379.9999999999999" as="sourcePoint" />
            <mxPoint x="350" y="450" as="targetPoint" />
            <Array as="points">
              <mxPoint x="470" y="448" />
              <mxPoint x="470" y="210" />
            </Array>
          </mxGeometry>
        </mxCell>
        <mxCell id="LaqEhR6ei1MSvkasvMU0-32" value="True" style="edgeLabel;html=1;align=center;verticalAlign=middle;resizable=0;points=[];" vertex="1" connectable="0" parent="LaqEhR6ei1MSvkasvMU0-31">
          <mxGeometry x="-0.9318" y="2" relative="1" as="geometry">
            <mxPoint x="1" y="-5" as="offset" />
          </mxGeometry>
        </mxCell>
        <mxCell id="LaqEhR6ei1MSvkasvMU0-33" value="Recorrer la lista y calcular la suma de los valores" style="rounded=0;whiteSpace=wrap;html=1;" vertex="1" parent="WIyWlLk6GJQsqaUBKTNV-1">
          <mxGeometry x="172.5" y="550" width="115" height="50" as="geometry" />
        </mxCell>
        <mxCell id="LaqEhR6ei1MSvkasvMU0-34" value="False" style="rounded=0;html=1;jettySize=auto;orthogonalLoop=1;fontSize=11;endArrow=block;endFill=0;endSize=8;strokeWidth=1;shadow=0;labelBackgroundColor=none;edgeStyle=orthogonalEdgeStyle;exitX=0.5;exitY=1;exitDx=0;exitDy=0;entryX=0.5;entryY=0;entryDx=0;entryDy=0;" edge="1" parent="WIyWlLk6GJQsqaUBKTNV-1" source="LaqEhR6ei1MSvkasvMU0-29" target="LaqEhR6ei1MSvkasvMU0-33">
          <mxGeometry x="-0.323" y="25" relative="1" as="geometry">
            <mxPoint x="350" y="704.9999999999999" as="sourcePoint" />
            <mxPoint x="510" y="740" as="targetPoint" />
            <mxPoint as="offset" />
          </mxGeometry>
        </mxCell>
        <mxCell id="LaqEhR6ei1MSvkasvMU0-35" value="Escribir en pantalla: &quot;Media: &quot; y la división entre la sumaTotal y numValores" style="shape=parallelogram;perimeter=parallelogramPerimeter;whiteSpace=wrap;html=1;fixedSize=1;" vertex="1" parent="WIyWlLk6GJQsqaUBKTNV-1">
          <mxGeometry x="140" y="650" width="180" height="80" as="geometry" />
        </mxCell>
        <mxCell id="LaqEhR6ei1MSvkasvMU0-36" value="" style="rounded=0;html=1;jettySize=auto;orthogonalLoop=1;fontSize=11;endArrow=block;endFill=0;endSize=8;strokeWidth=1;shadow=0;labelBackgroundColor=none;edgeStyle=orthogonalEdgeStyle;entryX=0.5;entryY=0;entryDx=0;entryDy=0;exitX=0.5;exitY=1;exitDx=0;exitDy=0;" edge="1" parent="WIyWlLk6GJQsqaUBKTNV-1" source="LaqEhR6ei1MSvkasvMU0-33" target="LaqEhR6ei1MSvkasvMU0-35">
          <mxGeometry relative="1" as="geometry">
            <mxPoint x="360" y="809.9999999999999" as="sourcePoint" />
            <mxPoint x="360.07000000000005" y="881.32" as="targetPoint" />
          </mxGeometry>
        </mxCell>
        <mxCell id="LaqEhR6ei1MSvkasvMU0-37" value="" style="rounded=0;html=1;jettySize=auto;orthogonalLoop=1;fontSize=11;endArrow=block;endFill=0;endSize=8;strokeWidth=1;shadow=0;labelBackgroundColor=none;edgeStyle=orthogonalEdgeStyle;entryX=0.5;entryY=0;entryDx=0;entryDy=0;exitX=0.5;exitY=1;exitDx=0;exitDy=0;" edge="1" parent="WIyWlLk6GJQsqaUBKTNV-1" source="LaqEhR6ei1MSvkasvMU0-35" target="LaqEhR6ei1MSvkasvMU0-21">
          <mxGeometry relative="1" as="geometry">
            <mxPoint x="360" y="959.9999999999999" as="sourcePoint" />
            <mxPoint x="360.07000000000005" y="1031.3200000000002" as="targetPoint" />
          </mxGeometry>
        </mxCell>
      </root>
    </mxGraphModel>
  </diagram>
</mxfile>
